<svg width="19" height="14" viewBox="0 0 19 14" fill="none" xmlns="http://www.w3.org/2000/svg">
<path d="M10.466 5.63724L11.642 6.16799L13.3768 5.62956L13.3625 4.41536C13.338 2.353 11.5775 0.721946 9.49732 0.746576C7.42604 0.771101 5.69561 2.43456 5.71982 4.47906L5.78536 10.0144C5.79138 10.5233 5.38546 10.9299 4.88549 10.9358C4.38553 10.9417 3.97008 10.5448 3.96406 10.036L3.93636 7.69683L1.008 7.7315C1.0358 10.0796 1.03612 10.1063 1.03612 10.1063C1.06117 12.2223 2.79563 13.9161 4.91155 13.8911C7.00962 13.8662 8.72166 12.1583 8.69693 10.0692L8.63223 4.6053C8.62631 4.10534 9.03214 3.68979 9.5321 3.68387C10.0321 3.67795 10.4476 4.08377 10.4535 4.58374L10.466 5.63724ZM15.2213 7.56321L15.2504 10.0184C15.2563 10.5184 14.8503 10.925 14.3504 10.9309C13.8504 10.9368 13.435 10.5399 13.4291 10.04L13.4005 7.62942L11.6657 8.16785L10.4897 7.6371L10.518 10.0298C10.5429 12.1279 12.286 13.8038 14.393 13.7788C16.509 13.7538 18.2028 12.0193 18.1778 9.90338C18.1778 9.90338 18.1775 9.87659 18.1497 7.52854L15.2213 7.56321Z" fill="white"/>
</svg>
